<svg xmlns="http://www.w3.org/2000/svg" viewBox="0 0 1200 630" width="1200" height="630" font-family="system-ui, -apple-system, Segoe UI, Roboto, sans-serif">
  <defs>
    <radialGradient id="glow" cx="78%" cy="22%" r="65%">
      <stop offset="0%" stop-color="#7A0F0F" stop-opacity="0.35"/>
      <stop offset="60%" stop-color="#7A0F0F" stop-opacity="0"/>
    </radialGradient>
  </defs>
  <rect width="1200" height="630" fill="#0B0B0D"/>
  <rect width="1200" height="630" fill="url(#glow)"/>
  <!-- grille discrète -->
  <g stroke="#27272a" stroke-width="1" opacity="0.5">
    <line x1="0" y1="160" x2="1200" y2="160"/>
    <line x1="0" y1="320" x2="1200" y2="320"/>
    <line x1="0" y1="480" x2="1200" y2="480"/>
  </g>
  <!-- bougies (repli puis reprise) -->
  <g>
    <g fill="#A8201A"><rect x="700" y="180" width="26" height="70" rx="2"/><rect x="744" y="220" width="26" height="80" rx="2"/><rect x="788" y="270" width="26" height="90" rx="2"/><rect x="832" y="330" width="26" height="80" rx="2"/></g>
    <g stroke="#A8201A" stroke-width="2"><line x1="713" y1="165" x2="713" y2="260"/><line x1="757" y1="205" x2="757" y2="312"/><line x1="801" y1="255" x2="801" y2="372"/><line x1="845" y1="315" x2="845" y2="420"/></g>
    <g fill="#C9A227"><rect x="876" y="320" width="26" height="80" rx="2"/><rect x="920" y="250" width="26" height="90" rx="2"/><rect x="964" y="180" width="26" height="90" rx="2"/><rect x="1008" y="120" width="26" height="80" rx="2"/></g>
    <g stroke="#C9A227" stroke-width="2"><line x1="889" y1="305" x2="889" y2="412"/><line x1="933" y1="235" x2="933" y2="352"/><line x1="977" y1="165" x2="977" y2="282"/><line x1="1021" y1="105" x2="1021" y2="210"/></g>
  </g>
  <!-- texte -->
  <text x="80" y="300" fill="#C9A227" font-size="22" font-weight="700" letter-spacing="6">MÉTHODE</text>
  <text x="78" y="372" fill="#ffffff" font-size="66" font-weight="800" letter-spacing="-1">Price Action</text>
  <text x="78" y="446" fill="#ffffff" font-size="66" font-weight="800" letter-spacing="-1">institutionnel</text>
  <g transform="translate(80,540)">
    <text x="0" y="0" fill="#ffffff" font-size="26" font-weight="900" letter-spacing="-1">KILLEUR<tspan fill="#7A0F0F">USD</tspan></text>
  </g>
</svg>
